<?xml version="1.0" standalone="no"?>
<!DOCTYPE svg PUBLIC "-//W3C//DTD SVG 20010904//EN"
 "http://www.w3.org/TR/2001/REC-SVG-20010904/DTD/svg10.dtd">
<svg version="1.0" xmlns="http://www.w3.org/2000/svg"
 width="16.000000pt" height="16.000000pt" viewBox="0 0 16.000000 16.000000"
 preserveAspectRatio="xMidYMid meet">
<metadata>
modified by Bharat Agarwal
</metadata>
<g transform="translate(0.000000,16.000000) scale(0.002145,-0.002145)"
fill="#000000" stroke="none">
<path d="M4735 6039 c-118 -48 -190 -127 -288 -319 -27 -52 -85 -165 -129
-250 -44 -85 -112 -216 -151 -290 -38 -74 -91 -175 -117 -225 -26 -49 -71
-137 -100 -195 -30 -58 -57 -106 -62 -108 -4 -2 -8 -9 -8 -15 0 -7 -6 -23 -13
-37 -7 -14 -55 -106 -106 -205 -52 -99 -110 -211 -131 -250 -21 -38 -79 -151
-130 -250 -98 -189 -112 -216 -255 -490 -48 -93 -120 -231 -158 -305 -96 -186
-94 -183 -164 -290 -131 -201 -277 -337 -465 -434 -48 -26 -89 -46 -90 -45 -2
1 -23 -5 -48 -12 -25 -7 -49 -14 -55 -15 -74 -21 -293 -27 -365 -10 -14 4 -37
8 -52 11 -104 19 -273 102 -388 190 -90 70 -250 244 -250 274 0 4 -8 15 -17
24 -17 15 -103 178 -138 259 -42 100 -92 287 -109 413 -25 175 -25 409 0 535
2 14 6 39 9 55 10 64 39 168 75 260 27 70 101 213 149 285 69 105 241 280 338
343 120 80 270 146 366 162 15 3 41 7 59 10 18 4 61 6 97 7 189 2 376 -55 545
-166 88 -58 152 -79 246 -81 174 -5 341 102 411 263 24 56 32 93 34 167 2 74
-9 124 -40 192 -35 78 -81 129 -175 196 -82 58 -330 195 -330 181 0 -3 -6 -2
-12 4 -21 16 -227 79 -318 96 -146 28 -180 31 -355 31 -186 0 -261 -8 -390
-41 -33 -9 -67 -17 -75 -19 -13 -3 -80 -26 -195 -68 -16 -6 -77 -34 -135 -63
-311 -156 -586 -401 -779 -694 -98 -149 -253 -480 -276 -591 -2 -8 -11 -40
-20 -70 -9 -30 -18 -67 -20 -83 -3 -15 -7 -36 -10 -46 -8 -24 -11 -40 -24
-130 -11 -74 -14 -96 -26 -215 -8 -78 -9 -411 -1 -495 12 -128 22 -213 30
-255 2 -11 7 -40 11 -65 4 -25 18 -92 32 -150 31 -130 29 -122 36 -140 3 -8
18 -53 33 -100 51 -158 184 -431 244 -500 11 -12 20 -29 20 -36 0 -7 3 -14 7
-16 5 -1 27 -28 50 -58 22 -30 52 -68 65 -84 37 -46 169 -177 227 -226 30 -25
59 -51 67 -57 7 -7 17 -13 22 -13 6 0 12 -4 14 -9 3 -9 131 -96 193 -131 149
-84 384 -179 509 -204 14 -3 89 -20 96 -21 5 -1 80 -12 145 -20 42 -6 259 -6
325 0 30 3 93 12 140 21 47 9 99 18 115 21 57 9 263 82 351 124 190 91 356
205 508 349 145 137 273 300 354 450 16 30 41 75 54 100 32 58 109 204 188
355 34 66 79 152 100 190 21 39 77 147 125 240 48 94 113 220 145 280 32 61
97 187 145 280 48 94 120 233 160 310 40 77 109 212 155 300 45 88 87 168 92
179 11 21 14 16 105 -154 25 -47 49 -89 53 -95 4 -5 33 -59 65 -120 33 -60 71
-132 87 -158 15 -26 28 -50 28 -52 0 -2 17 -34 38 -72 22 -37 58 -104 82 -148
23 -44 80 -147 125 -230 81 -149 124 -227 183 -337 48 -89 56 -102 71 -120 8
-10 11 -18 7 -18 -3 0 4 -17 17 -37 13 -21 47 -82 76 -137 29 -54 61 -113 71
-132 11 -18 36 -64 56 -101 20 -37 44 -81 54 -98 10 -16 37 -66 60 -110 23
-44 56 -104 72 -133 17 -29 28 -55 26 -57 -2 -2 -417 -5 -923 -6 -864 -2 -923
-3 -975 -21 -84 -28 -130 -56 -188 -115 -54 -55 -105 -148 -118 -213 -46 -246
110 -480 350 -526 17 -3 634 -6 1371 -6 1014 0 1351 3 1385 12 106 28 182 93
238 202 79 154 60 292 -72 523 -19 33 -45 80 -58 105 -13 25 -42 79 -65 120
-22 41 -61 114 -86 162 -26 47 -56 103 -67 123 -11 20 -41 76 -67 123 -25 48
-58 110 -73 137 -32 58 -71 130 -127 235 -22 41 -71 131 -108 200 -37 69 -84
157 -105 195 -49 91 -164 305 -202 375 -17 30 -51 93 -76 140 -24 47 -74 139
-110 205 -35 66 -83 154 -105 195 -22 41 -47 89 -57 105 -10 17 -39 71 -65
120 -26 50 -64 119 -83 155 -62 113 -100 184 -119 220 -9 19 -53 100 -96 180
-105 192 -134 246 -198 365 -29 55 -63 118 -76 140 -12 22 -27 49 -32 60 -11
26 -77 112 -110 146 -99 99 -257 136 -376 88z"/>
</g>
</svg>
